<svg xmlns="http://www.w3.org/2000/svg" width="64" height="64" viewBox="0 0 64 64" fill="none">
  <rect width="64" height="64" rx="18" fill="#06070B"/>
  <path d="M34.8 7.6c2.1 8.1-.8 12.7-4.2 16.3-2.3 2.4-3.8 4.5-3.5 7.5 3.6-1.8 5.8-4.8 6.7-9 8.2 5.1 13.5 12 13.5 20.2 0 9.7-7.2 16.9-17.1 16.9-9.6 0-17.4-6.8-17.4-16.5 0-7.5 4.6-12.7 9.2-17.3 4.5-4.5 8.9-8.8 7.7-16.7-.1-.9.9-1.6 1.7-1.1 1.2.7 2.3 1.6 3.4 2.7Z" fill="url(#fire)"/>
  <path d="M35.7 45.2c0 5.1-3.7 8.5-8.4 8.5-4.6 0-8-3.1-8-7.6 0-3.8 2.6-6.4 5.4-9 2.2-2.1 4.4-4.2 4.6-7.7 4.4 3.7 6.4 8.3 6.4 15.8Z" fill="#FFE66B"/>
  <defs>
    <linearGradient id="fire" x1="14" x2="50" y1="10" y2="55" gradientUnits="userSpaceOnUse">
      <stop stop-color="#FF6B45"/>
      <stop offset=".52" stop-color="#FF343D"/>
      <stop offset="1" stop-color="#FFB000"/>
    </linearGradient>
  </defs>
</svg>
